<svg id="Layer_1" data-name="Layer 1" xmlns="http://www.w3.org/2000/svg" xmlns:xlink="http://www.w3.org/1999/xlink" viewBox="0 0 256 256"><defs><style>.cls-1{fill:none;}.cls-2{clip-path:url(#clip-path);}.cls-3{fill:#808285;}.cls-4{fill:#414042;}.cls-5{fill:#9ab4cb;}.cls-6{fill:#231f20;}.cls-7{fill:#8a0f12;opacity:0.8;}.cls-8{fill:#fff;}</style><clipPath id="clip-path"><path class="cls-1" d="M0,0V256H256V0Z"/></clipPath></defs><title>Artboard 1</title><g class="cls-2"><rect class="cls-3" width="256" height="256"/><rect class="cls-4" x="16.45" y="-210.86" width="5" height="602.95" transform="translate(-2.1 0.47) rotate(-1.33)"/><path class="cls-4" d="M468.16,224.29c-1.84,0-185.2-1.78-265-3.51-65.49-1.42-113.3-72-151.72-128.75C41.73,77.71,32.56,64.17,24,53.1-16.78.44-133.12,14.42-134.29,14.57l-.62-5a345,345,0,0,1,65-.67C-23.55,13,10.28,27.23,27.94,50c8.67,11.2,17.88,24.8,27.63,39.19C93.34,145,140.35,214.41,203.26,215.78c79.78,1.73,263.11,3.49,265,3.51Z"/><path class="cls-5" d="M257.6,43.67c-3.1-7.24-28,5.47-29.64,10.06s-16,18.82-18.61,25-12.28,8.63-13.16,17.48-5.26,13.12-11.41,19.75-24,16.34-28.08,28.57-20.25,29-7.9,33.34,25,8.69,34.71,6.42,32.76-16.94,41.63-11.69,22.34.38,22.14-6.83-2-19.49,5.06-23,5.67-5.7,5.26-14,4.56-32.53,4.38-38.16S262.87,56,257.6,43.67Z"/><path class="cls-5" d="M99.39,238.15c-10.79,6.74-21.94,32.46-23.69,52.65S70.44,339,80.09,354.84s19.3,25.45,45.63,29.83,145.65,14,148.28,0,3.51-11.41-6.14-25.45S120.45,225,99.39,238.15Z"/><path class="cls-5" d="M212.34,252.43c4.4-8.59,162.32-2.63,174.61,0s32.46,42.3,0,48.35-98.27,1-110.55,0-12.28-11.5-18.43-18.52-23.69-4.3-32.46-4.78S202.69,271.3,212.34,252.43Z"/><path class="cls-4" d="M238.71,193.18c-15.71,0-30.11-6.5-30.87-6.85l1.25-2.73c.22.1,22.56,10.18,41.1,5.15,2.64-.72,4.94-1.3,6.95-1.82,12.55-3.2,12.79-3.26,14.84-13.7,1.66-8.48,2.35-57.29,2.81-89.59.25-17.92.45-32.07.73-34.86.61-6.18-4.68-16.18-6.39-19.23l-26.07,5.23-.59-2.94,28.16-5.65.54.91c.33.55,8.14,13.68,7.33,22-.26,2.66-.46,16.76-.71,34.61-.49,34.34-1.15,81.38-2.87,90.12-2.17,11.08-2.89,12.42-17,16-2,.51-4.28,1.09-6.91,1.8A46.91,46.91,0,0,1,238.71,193.18Z"/><path class="cls-4" d="M116.53,140.57c-2.17,0-4.41-1.48-6.69-4.44-.76-1-5.81-6.53-10.7-11.89-13.78-15.12-14.51-16.05-14.72-16.7s-1.55-5.07-2.23-7.34c-4.6,1.31-13.47,4.71-13.27,9l-3,.14c-.38-8.06,15.17-12,16.95-12.38l1.38-.32L84.65,98c.75,2.51,2.2,7.33,2.57,8.48,1,1.32,8.56,9.66,14.15,15.79,5.38,5.9,10,11,10.85,12.08,3,3.84,4.56,3.55,5.72,2.75,3.16-2.47,41.73-58,43.56-61.6.89-1.73-.24-7.33-1.45-11.33L77.65,62.56,76.22,76c6.25,8.11,8.82,13.27,7.64,15.33a9.35,9.35,0,0,0-.6,1.46c-.44,1.23-1,2.77-2.51,3.47-1.2.55-2.68.45-4.65-.32-5-2-32.17-30-32.54-38.18l-.07-1.57H74.4L77,59.54l85.21,1.62.33,1c.59,1.8,3.47,11,1.59,14.64-1,1.91-12.16,18.23-21.58,31.69-13.68,19.53-21.4,30-23,31A5.45,5.45,0,0,1,116.53,140.57ZM87.16,106.35h0ZM46.94,59.21c3.28,8.35,25.79,32.22,30.24,34,1.54.6,2.13.47,2.32.39.38-.17.66-1,.93-1.74A12.45,12.45,0,0,1,81.19,90c0-1.58-3.93-7.74-7.71-12.6l-.37-.48,1.64-15.43-1.8-2.27Z"/><rect class="cls-4" x="60.84" y="70.36" width="14.31" height="3"/><polygon class="cls-4" points="123.95 131.57 110.04 117.58 118.45 109.39 132.85 119.71 131.1 122.15 118.74 113.29 114.3 117.61 126.08 129.45 123.95 131.57"/><polygon class="cls-4" points="145.19 102.26 131.89 93.75 137.94 82.89 152.33 91.71 150.76 94.27 139.04 87.08 135.88 92.74 146.81 99.74 145.19 102.26"/><polygon class="cls-4" points="157.21 84.27 146.32 74.03 160.79 70.4 161.52 73.31 152.38 75.61 159.27 82.09 157.21 84.27"/><path class="cls-4" d="M166.65,53.43h-3V37.73l.38-.43c0-.05,4.53-5.19,4.56-9.44,0-1.35-.18-3.48-.41-5.94-.57-6.34-1.28-14.22.57-17.87,2.94-5.79,7.61-18.44,6.43-29.1-1.26-11.33-10.46-23.38-17.93-27.12-3-1.49-7.2-2-11.5-1.74v5.77l-.62.45c-4.88,3.53-16.5,11.77-18.91,12.11-1.35.38-6.15,7.06-4.68,12.61.35,1.31.86,3.06,1.47,5.09,2.32,7.81,5.82,19.62,7.13,31.65,1.54,14.17-5.39,17.12-13.41,20.53-1.26.54-2.57,1.1-3.9,1.72-10.11,4.72-27.69,3.49-32.73,1.7-5.64-2-23-34.58-22.71-45,.39-12.33,32.58-18.85,37.91-19.11,2.68-.13,9-3.66,16.37-9.2,6.75-5.05,13.1-10.76,15.45-13.89,5.56-7.42,23.24-9.5,31.48-5.38s18.19,17,19.58,29.47c1.26,11.36-3.64,24.7-6.73,30.79-1.46,2.87-.73,10.92-.25,16.24.23,2.54.43,4.74.42,6.23,0,4.59-3.72,9.47-4.94,11Zm-23.91-107c-5.68.82-11,2.94-13.24,5.92-2.54,3.38-9,9.21-16.05,14.49-4.77,3.56-13.44,9.58-18,9.8-3.33.16-12.22,2-20.23,5-9.3,3.49-14.7,7.58-14.82,11.22C60,3.14,77.7,33.7,81.09,34.91c4.55,1.62,21.19,2.73,30.45-1.59,1.38-.64,2.71-1.21,4-1.76,8-3.43,12.9-5.5,11.6-17.45-1.28-11.77-4.74-23.42-7-31.12-.61-2.05-1.13-3.82-1.49-5.18-1.17-4.43.68-9.41,2.79-12.59.86-1.29,2.56-3.5,4.37-3.76,1.4-.33,9.61-5.84,17-11.13Z"/><path class="cls-4" d="M75.35,124.89c-5.23-7.38-35.73-15-56.19-12.06l-.21,0H-134.6v-3H18.84c20.64-2.92,52.55,4.28,59,13.31Z"/><rect class="cls-6" x="-198.31" y="87.61" width="756.52" height="6" transform="translate(-0.98 179.26) rotate(-52.83)"/><path class="cls-6" d="M-51.47,393.8l-4.82-3.58c1.8-2.42,180.38-242.68,243.39-325.77,4.79-6.32,12-17.38,19.67-29.1C216.23,20.86,227,4.44,235.84-7.28c12-15.78,26.41-33,39.16-48.13,10.33-12.29,20.09-23.89,26.6-32.49,24.94-32.89,98.58-123.86,99.32-124.78l4.66,3.78c-.74.91-74.32,91.81-99.2,124.63C299.78-75.55,290-63.89,279.6-51.54c-12.7,15.11-27.09,32.23-39,47.89C231.87,7.9,221.2,24.23,211.8,38.63c-7.71,11.8-15,23-19.91,29.44C128.89,151.14-49.68,391.38-51.47,393.8Z"/></g><path class="cls-7" d="M0,0V256H256V0ZM128,210.81A82.81,82.81,0,1,1,210.81,128,82.81,82.81,0,0,1,128,210.81Z"/><path class="cls-8" d="M128,218.65A90.65,90.65,0,1,1,218.65,128,90.75,90.75,0,0,1,128,218.65Zm0-168.95A78.3,78.3,0,1,0,206.3,128,78.39,78.39,0,0,0,128,49.71Z"/><path class="cls-8" d="M128,186.76A58.76,58.76,0,1,1,186.76,128,58.83,58.83,0,0,1,128,186.76Zm0-114.43A55.67,55.67,0,1,0,183.67,128,55.74,55.74,0,0,0,128,72.33Z"/><path class="cls-8" d="M128,233a4.63,4.63,0,0,1-4.63-4.63V27.63a4.63,4.63,0,1,1,9.26,0V228.37A4.63,4.63,0,0,1,128,233Z"/><path class="cls-8" d="M23,128a4.63,4.63,0,0,1,4.63-4.63H228.37a4.63,4.63,0,0,1,0,9.26H27.63A4.63,4.63,0,0,1,23,128Z"/></svg>